<mxfile host="app.diagrams.net" modified="2021-09-07T18:42:49.716Z" agent="5.0 (Windows NT 10.0; Win64; x64) AppleWebKit/537.36 (KHTML, like Gecko) Chrome/93.0.4577.63 Safari/537.36" etag="Tv-A2ZhN5Kdh3doDxXHO" version="15.1.0" type="github">
  <diagram id="C5RBs43oDa-KdzZeNtuy" name="Page-1">
    <mxGraphModel dx="4493" dy="1620" grid="1" gridSize="10" guides="1" tooltips="1" connect="1" arrows="1" fold="1" page="0" pageScale="1" pageWidth="827" pageHeight="1169" background="#E6E6E6" math="0" shadow="1">
      <root>
        <mxCell id="WIyWlLk6GJQsqaUBKTNV-0" />
        <mxCell id="WIyWlLk6GJQsqaUBKTNV-1" parent="WIyWlLk6GJQsqaUBKTNV-0" />
        <mxCell id="WIyWlLk6GJQsqaUBKTNV-2" value="" style="rounded=0;html=1;jettySize=auto;orthogonalLoop=1;fontSize=11;endArrow=block;endFill=0;endSize=8;strokeWidth=1;shadow=0;labelBackgroundColor=none;edgeStyle=orthogonalEdgeStyle;" parent="WIyWlLk6GJQsqaUBKTNV-1" source="WIyWlLk6GJQsqaUBKTNV-3" target="WIyWlLk6GJQsqaUBKTNV-6" edge="1">
          <mxGeometry relative="1" as="geometry" />
        </mxCell>
        <mxCell id="WIyWlLk6GJQsqaUBKTNV-3" value="OPEN app" style="rounded=1;whiteSpace=wrap;html=1;fontSize=12;glass=0;strokeWidth=1;shadow=0;" parent="WIyWlLk6GJQsqaUBKTNV-1" vertex="1">
          <mxGeometry x="160" y="80" width="120" height="40" as="geometry" />
        </mxCell>
        <mxCell id="WIyWlLk6GJQsqaUBKTNV-4" value="No" style="rounded=0;html=1;jettySize=auto;orthogonalLoop=1;fontSize=11;endArrow=block;endFill=0;endSize=8;strokeWidth=1;shadow=0;labelBackgroundColor=none;edgeStyle=orthogonalEdgeStyle;entryX=0.502;entryY=0.022;entryDx=0;entryDy=0;entryPerimeter=0;" parent="WIyWlLk6GJQsqaUBKTNV-1" source="WIyWlLk6GJQsqaUBKTNV-6" target="RiDXG4KDZzwRRR-xiYGp-12" edge="1">
          <mxGeometry x="-0.6667" y="20" relative="1" as="geometry">
            <mxPoint as="offset" />
            <mxPoint x="220" y="319.9999999999999" as="targetPoint" />
          </mxGeometry>
        </mxCell>
        <mxCell id="WIyWlLk6GJQsqaUBKTNV-5" value="Yes" style="edgeStyle=orthogonalEdgeStyle;rounded=0;html=1;jettySize=auto;orthogonalLoop=1;fontSize=11;endArrow=block;endFill=0;endSize=8;strokeWidth=1;shadow=0;labelBackgroundColor=none;" parent="WIyWlLk6GJQsqaUBKTNV-1" source="WIyWlLk6GJQsqaUBKTNV-6" target="WIyWlLk6GJQsqaUBKTNV-7" edge="1">
          <mxGeometry y="10" relative="1" as="geometry">
            <mxPoint as="offset" />
            <Array as="points">
              <mxPoint x="300" y="210" />
              <mxPoint x="300" y="210" />
            </Array>
          </mxGeometry>
        </mxCell>
        <mxCell id="WIyWlLk6GJQsqaUBKTNV-6" value="new user" style="rhombus;whiteSpace=wrap;html=1;shadow=0;fontFamily=Helvetica;fontSize=12;align=center;strokeWidth=1;spacing=6;spacingTop=-4;" parent="WIyWlLk6GJQsqaUBKTNV-1" vertex="1">
          <mxGeometry x="170" y="170" width="100" height="80" as="geometry" />
        </mxCell>
        <mxCell id="WIyWlLk6GJQsqaUBKTNV-7" value="Email auth/login" style="rounded=1;whiteSpace=wrap;html=1;fontSize=12;glass=0;strokeWidth=1;shadow=0;" parent="WIyWlLk6GJQsqaUBKTNV-1" vertex="1">
          <mxGeometry x="320" y="190" width="120" height="40" as="geometry" />
        </mxCell>
        <mxCell id="RiDXG4KDZzwRRR-xiYGp-1" value="" style="endArrow=classic;html=1;exitX=0.5;exitY=1;exitDx=0;exitDy=0;" edge="1" parent="WIyWlLk6GJQsqaUBKTNV-1" source="WIyWlLk6GJQsqaUBKTNV-7">
          <mxGeometry width="50" height="50" relative="1" as="geometry">
            <mxPoint x="310" y="300" as="sourcePoint" />
            <mxPoint x="220" y="290" as="targetPoint" />
            <Array as="points">
              <mxPoint x="380" y="290" />
            </Array>
          </mxGeometry>
        </mxCell>
        <mxCell id="RiDXG4KDZzwRRR-xiYGp-12" value="" style="shape=mxgraph.mockup.containers.marginRect;rectMarginTop=10;strokeColor=#b85450;strokeWidth=1;dashed=0;rounded=1;arcSize=5;recursiveResize=0;fillColor=#8C8C8C;" vertex="1" parent="WIyWlLk6GJQsqaUBKTNV-1">
          <mxGeometry x="55" y="380" width="330" height="530" as="geometry" />
        </mxCell>
        <mxCell id="RiDXG4KDZzwRRR-xiYGp-13" value="Dashboard" style="shape=rect;strokeColor=none;fillColor=#008cff;strokeWidth=1;dashed=0;rounded=1;arcSize=20;fontColor=#ffffff;fontSize=17;spacing=2;spacingTop=-2;align=left;autosize=1;spacingLeft=4;resizeWidth=0;resizeHeight=0;perimeter=none;" vertex="1" parent="RiDXG4KDZzwRRR-xiYGp-12">
          <mxGeometry y="5" width="110" height="30" as="geometry" />
        </mxCell>
        <mxCell id="RiDXG4KDZzwRRR-xiYGp-14" value="" style="verticalLabelPosition=bottom;shadow=0;dashed=0;align=center;html=1;verticalAlign=top;strokeWidth=1;shape=mxgraph.mockup.graphics.columnChart;strokeColor=none;strokeColor2=none;strokeColor3=#666666;fillColor2=#008cff;fillColor3=#dddddd;" vertex="1" parent="RiDXG4KDZzwRRR-xiYGp-12">
          <mxGeometry x="45" y="260" width="230" height="100" as="geometry" />
        </mxCell>
        <mxCell id="RiDXG4KDZzwRRR-xiYGp-22" value="" style="edgeStyle=orthogonalEdgeStyle;rounded=0;orthogonalLoop=1;jettySize=auto;html=1;exitX=0.463;exitY=0.95;exitDx=0;exitDy=0;exitPerimeter=0;" edge="1" parent="RiDXG4KDZzwRRR-xiYGp-12" source="RiDXG4KDZzwRRR-xiYGp-15" target="RiDXG4KDZzwRRR-xiYGp-17">
          <mxGeometry relative="1" as="geometry">
            <Array as="points" />
          </mxGeometry>
        </mxCell>
        <mxCell id="RiDXG4KDZzwRRR-xiYGp-15" value="Chart Analyis: Drop down" style="text;html=1;strokeColor=#9673a6;fillColor=#e1d5e7;align=center;verticalAlign=middle;whiteSpace=wrap;rounded=0;labelBorderColor=none;" vertex="1" parent="RiDXG4KDZzwRRR-xiYGp-12">
          <mxGeometry x="30" y="190" width="270" height="30" as="geometry" />
        </mxCell>
        <mxCell id="RiDXG4KDZzwRRR-xiYGp-17" value="no. of bills vs Month" style="text;html=1;strokeColor=none;fillColor=none;align=center;verticalAlign=middle;whiteSpace=wrap;rounded=0;" vertex="1" parent="RiDXG4KDZzwRRR-xiYGp-12">
          <mxGeometry x="85" y="260" width="140" height="20" as="geometry" />
        </mxCell>
        <mxCell id="RiDXG4KDZzwRRR-xiYGp-18" value="" style="verticalLabelPosition=bottom;shadow=0;dashed=0;align=center;html=1;verticalAlign=top;strokeWidth=1;shape=mxgraph.mockup.graphics.pieChart;strokeColor=#008cff;parts=10,20,35;partColors=#e0e0e0,#d0d0d0,#c0c0c0,#b0b0b0,#a0a0a0;strokeWidth=2;" vertex="1" parent="RiDXG4KDZzwRRR-xiYGp-12">
          <mxGeometry x="90" y="390" width="130" height="120" as="geometry" />
        </mxCell>
        <mxCell id="RiDXG4KDZzwRRR-xiYGp-19" value="Paid and Unpaid" style="text;html=1;strokeColor=none;fillColor=none;align=center;verticalAlign=middle;whiteSpace=wrap;rounded=0;" vertex="1" parent="RiDXG4KDZzwRRR-xiYGp-12">
          <mxGeometry x="90" y="440" width="140" height="20" as="geometry" />
        </mxCell>
        <mxCell id="RiDXG4KDZzwRRR-xiYGp-41" value="" style="shape=image;html=1;verticalAlign=top;verticalLabelPosition=bottom;labelBackgroundColor=#ffffff;imageAspect=0;aspect=fixed;image=https://cdn1.iconfinder.com/data/icons/gradak-interface/32/interface-67-128.png" vertex="1" parent="RiDXG4KDZzwRRR-xiYGp-12">
          <mxGeometry y="30" width="48" height="48" as="geometry" />
        </mxCell>
        <mxCell id="RiDXG4KDZzwRRR-xiYGp-33" value="" style="strokeWidth=1;shadow=0;dashed=0;align=center;html=1;shape=mxgraph.mockup.forms.rrect;rSize=0;strokeColor=#999999;fillColor=#ffffff;" vertex="1" parent="RiDXG4KDZzwRRR-xiYGp-12">
          <mxGeometry x="30" y="68" width="270" height="110" as="geometry" />
        </mxCell>
        <mxCell id="RiDXG4KDZzwRRR-xiYGp-34" value="Filter" style="strokeWidth=1;shadow=0;dashed=0;align=left;html=1;shape=mxgraph.mockup.forms.rrect;rSize=0;strokeColor=#9673a6;fontSize=17;fillColor=#e1d5e7;resizeWidth=1;" vertex="1" parent="RiDXG4KDZzwRRR-xiYGp-33">
          <mxGeometry width="270" height="30" relative="1" as="geometry" />
        </mxCell>
        <mxCell id="RiDXG4KDZzwRRR-xiYGp-35" value="Date" style="strokeWidth=1;shadow=0;dashed=0;align=center;html=1;shape=mxgraph.mockup.forms.anchor;fontSize=17;fontColor=#666666;align=left;spacingLeft=5;resizeWidth=1;" vertex="1" parent="RiDXG4KDZzwRRR-xiYGp-33">
          <mxGeometry width="270" height="20" relative="1" as="geometry">
            <mxPoint y="30" as="offset" />
          </mxGeometry>
        </mxCell>
        <mxCell id="RiDXG4KDZzwRRR-xiYGp-36" value="month" style="strokeWidth=1;shadow=0;dashed=0;align=center;html=1;shape=mxgraph.mockup.forms.anchor;fontSize=17;fontColor=#666666;align=left;spacingLeft=5;resizeWidth=1;" vertex="1" parent="RiDXG4KDZzwRRR-xiYGp-33">
          <mxGeometry width="270" height="20" relative="1" as="geometry">
            <mxPoint y="50" as="offset" />
          </mxGeometry>
        </mxCell>
        <mxCell id="RiDXG4KDZzwRRR-xiYGp-37" value="year" style="strokeWidth=1;shadow=0;dashed=0;align=center;html=1;shape=mxgraph.mockup.forms.rrect;rSize=0;fontSize=17;fontColor=#666666;align=left;spacingLeft=5;fillColor=#ddeeff;strokeColor=none;resizeWidth=1;" vertex="1" parent="RiDXG4KDZzwRRR-xiYGp-33">
          <mxGeometry width="270" height="20" relative="1" as="geometry">
            <mxPoint y="70" as="offset" />
          </mxGeometry>
        </mxCell>
        <mxCell id="RiDXG4KDZzwRRR-xiYGp-98" value="" style="group" vertex="1" connectable="0" parent="WIyWlLk6GJQsqaUBKTNV-1">
          <mxGeometry x="-1410" y="910" width="300" height="530" as="geometry" />
        </mxCell>
        <mxCell id="RiDXG4KDZzwRRR-xiYGp-49" value="" style="shape=mxgraph.mockup.containers.marginRect;rectMarginTop=10;strokeColor=#666666;strokeWidth=1;dashed=0;rounded=1;arcSize=5;recursiveResize=0;fillColor=#8C8C8C;align=left;container=0;" vertex="1" parent="RiDXG4KDZzwRRR-xiYGp-98">
          <mxGeometry width="300" height="530" as="geometry" />
        </mxCell>
        <mxCell id="RiDXG4KDZzwRRR-xiYGp-50" value="Invoices" style="shape=rect;strokeColor=none;fillColor=#008cff;strokeWidth=1;dashed=0;rounded=1;arcSize=20;fontColor=#ffffff;fontSize=17;spacing=2;spacingTop=-2;align=left;autosize=1;spacingLeft=4;resizeWidth=0;resizeHeight=0;perimeter=none;" vertex="1" parent="RiDXG4KDZzwRRR-xiYGp-98">
          <mxGeometry width="90" height="30" as="geometry" />
        </mxCell>
        <mxCell id="RiDXG4KDZzwRRR-xiYGp-116" value="" style="group" vertex="1" connectable="0" parent="RiDXG4KDZzwRRR-xiYGp-98">
          <mxGeometry x="15" y="60" width="270" height="80" as="geometry" />
        </mxCell>
        <mxCell id="RiDXG4KDZzwRRR-xiYGp-117" value="" style="rounded=0;whiteSpace=wrap;html=1;fontSize=13;fillColor=#8C8C8C;align=center;labelBorderColor=#000000;" vertex="1" parent="RiDXG4KDZzwRRR-xiYGp-116">
          <mxGeometry width="270" height="80" as="geometry" />
        </mxCell>
        <mxCell id="RiDXG4KDZzwRRR-xiYGp-118" value="xxx.xx" style="shape=ext;double=1;rounded=0;whiteSpace=wrap;html=1;fillColor=#8C8C8C;align=center;" vertex="1" parent="RiDXG4KDZzwRRR-xiYGp-116">
          <mxGeometry x="195" y="10" width="50" height="50" as="geometry" />
        </mxCell>
        <mxCell id="RiDXG4KDZzwRRR-xiYGp-119" value="&lt;font style=&quot;font-size: 13px; line-height: 0%;&quot;&gt;bill x&lt;br style=&quot;font-size: 13px;&quot;&gt;x items&lt;br style=&quot;font-size: 13px;&quot;&gt;date:xx-xx-xxx&lt;/font&gt;" style="text;strokeColor=none;fillColor=none;html=1;fontSize=13;fontStyle=1;verticalAlign=middle;align=left;textDirection=ltr;spacing=2;" vertex="1" parent="RiDXG4KDZzwRRR-xiYGp-116">
          <mxGeometry x="20" y="15" width="100" height="40" as="geometry" />
        </mxCell>
        <mxCell id="RiDXG4KDZzwRRR-xiYGp-120" value="Edit" style="text;html=1;strokeColor=none;fillColor=none;align=center;verticalAlign=middle;whiteSpace=wrap;rounded=0;fontSize=8;" vertex="1" parent="RiDXG4KDZzwRRR-xiYGp-116">
          <mxGeometry x="75" y="60" width="70" height="20" as="geometry" />
        </mxCell>
        <mxCell id="RiDXG4KDZzwRRR-xiYGp-121" value="Delete" style="text;html=1;strokeColor=none;fillColor=none;align=center;verticalAlign=middle;whiteSpace=wrap;rounded=0;fontSize=8;" vertex="1" parent="RiDXG4KDZzwRRR-xiYGp-116">
          <mxGeometry x="120" y="60" width="70" height="20" as="geometry" />
        </mxCell>
        <mxCell id="RiDXG4KDZzwRRR-xiYGp-122" value="Download" style="text;html=1;strokeColor=none;fillColor=none;align=center;verticalAlign=middle;whiteSpace=wrap;rounded=0;fontSize=8;" vertex="1" parent="RiDXG4KDZzwRRR-xiYGp-116">
          <mxGeometry x="185" y="60" width="70" height="20" as="geometry" />
        </mxCell>
        <mxCell id="RiDXG4KDZzwRRR-xiYGp-123" value="View details" style="text;html=1;strokeColor=none;fillColor=none;align=center;verticalAlign=middle;whiteSpace=wrap;rounded=0;fontSize=8;" vertex="1" parent="RiDXG4KDZzwRRR-xiYGp-116">
          <mxGeometry x="20" y="60" width="70" height="20" as="geometry" />
        </mxCell>
        <mxCell id="RiDXG4KDZzwRRR-xiYGp-124" value="" style="group" vertex="1" connectable="0" parent="RiDXG4KDZzwRRR-xiYGp-98">
          <mxGeometry x="15" y="150" width="270" height="80" as="geometry" />
        </mxCell>
        <mxCell id="RiDXG4KDZzwRRR-xiYGp-125" value="" style="rounded=0;whiteSpace=wrap;html=1;fontSize=13;fillColor=#8C8C8C;align=center;labelBorderColor=#000000;" vertex="1" parent="RiDXG4KDZzwRRR-xiYGp-124">
          <mxGeometry width="270" height="80" as="geometry" />
        </mxCell>
        <mxCell id="RiDXG4KDZzwRRR-xiYGp-126" value="xxx.xx" style="shape=ext;double=1;rounded=0;whiteSpace=wrap;html=1;fillColor=#8C8C8C;align=center;" vertex="1" parent="RiDXG4KDZzwRRR-xiYGp-124">
          <mxGeometry x="195" y="10" width="50" height="50" as="geometry" />
        </mxCell>
        <mxCell id="RiDXG4KDZzwRRR-xiYGp-127" value="&lt;font style=&quot;font-size: 13px; line-height: 0%;&quot;&gt;bill x&lt;br style=&quot;font-size: 13px;&quot;&gt;x items&lt;br style=&quot;font-size: 13px;&quot;&gt;date:xx-xx-xxx&lt;/font&gt;" style="text;strokeColor=none;fillColor=none;html=1;fontSize=13;fontStyle=1;verticalAlign=middle;align=left;textDirection=ltr;spacing=2;" vertex="1" parent="RiDXG4KDZzwRRR-xiYGp-124">
          <mxGeometry x="20" y="15" width="100" height="40" as="geometry" />
        </mxCell>
        <mxCell id="RiDXG4KDZzwRRR-xiYGp-128" value="Edit" style="text;html=1;strokeColor=none;fillColor=none;align=center;verticalAlign=middle;whiteSpace=wrap;rounded=0;fontSize=8;" vertex="1" parent="RiDXG4KDZzwRRR-xiYGp-124">
          <mxGeometry x="75" y="60" width="70" height="20" as="geometry" />
        </mxCell>
        <mxCell id="RiDXG4KDZzwRRR-xiYGp-129" value="Delete" style="text;html=1;strokeColor=none;fillColor=none;align=center;verticalAlign=middle;whiteSpace=wrap;rounded=0;fontSize=8;" vertex="1" parent="RiDXG4KDZzwRRR-xiYGp-124">
          <mxGeometry x="120" y="60" width="70" height="20" as="geometry" />
        </mxCell>
        <mxCell id="RiDXG4KDZzwRRR-xiYGp-130" value="Download" style="text;html=1;strokeColor=none;fillColor=none;align=center;verticalAlign=middle;whiteSpace=wrap;rounded=0;fontSize=8;" vertex="1" parent="RiDXG4KDZzwRRR-xiYGp-124">
          <mxGeometry x="185" y="60" width="70" height="20" as="geometry" />
        </mxCell>
        <mxCell id="RiDXG4KDZzwRRR-xiYGp-131" value="View details" style="text;html=1;strokeColor=none;fillColor=none;align=center;verticalAlign=middle;whiteSpace=wrap;rounded=0;fontSize=8;" vertex="1" parent="RiDXG4KDZzwRRR-xiYGp-124">
          <mxGeometry x="20" y="60" width="70" height="20" as="geometry" />
        </mxCell>
        <mxCell id="RiDXG4KDZzwRRR-xiYGp-132" value="" style="group" vertex="1" connectable="0" parent="RiDXG4KDZzwRRR-xiYGp-98">
          <mxGeometry x="15" y="240" width="270" height="80" as="geometry" />
        </mxCell>
        <mxCell id="RiDXG4KDZzwRRR-xiYGp-133" value="" style="rounded=0;whiteSpace=wrap;html=1;fontSize=13;fillColor=#8C8C8C;align=center;labelBorderColor=#000000;" vertex="1" parent="RiDXG4KDZzwRRR-xiYGp-132">
          <mxGeometry width="270" height="80" as="geometry" />
        </mxCell>
        <mxCell id="RiDXG4KDZzwRRR-xiYGp-134" value="xxx.xx" style="shape=ext;double=1;rounded=0;whiteSpace=wrap;html=1;fillColor=#8C8C8C;align=center;" vertex="1" parent="RiDXG4KDZzwRRR-xiYGp-132">
          <mxGeometry x="195" y="10" width="50" height="50" as="geometry" />
        </mxCell>
        <mxCell id="RiDXG4KDZzwRRR-xiYGp-135" value="&lt;font style=&quot;font-size: 13px; line-height: 0%;&quot;&gt;bill x&lt;br style=&quot;font-size: 13px;&quot;&gt;x items&lt;br style=&quot;font-size: 13px;&quot;&gt;date:xx-xx-xxx&lt;/font&gt;" style="text;strokeColor=none;fillColor=none;html=1;fontSize=13;fontStyle=1;verticalAlign=middle;align=left;textDirection=ltr;spacing=2;" vertex="1" parent="RiDXG4KDZzwRRR-xiYGp-132">
          <mxGeometry x="20" y="15" width="100" height="40" as="geometry" />
        </mxCell>
        <mxCell id="RiDXG4KDZzwRRR-xiYGp-136" value="Edit" style="text;html=1;strokeColor=none;fillColor=none;align=center;verticalAlign=middle;whiteSpace=wrap;rounded=0;fontSize=8;" vertex="1" parent="RiDXG4KDZzwRRR-xiYGp-132">
          <mxGeometry x="75" y="60" width="70" height="20" as="geometry" />
        </mxCell>
        <mxCell id="RiDXG4KDZzwRRR-xiYGp-137" value="Delete" style="text;html=1;strokeColor=none;fillColor=none;align=center;verticalAlign=middle;whiteSpace=wrap;rounded=0;fontSize=8;" vertex="1" parent="RiDXG4KDZzwRRR-xiYGp-132">
          <mxGeometry x="120" y="60" width="70" height="20" as="geometry" />
        </mxCell>
        <mxCell id="RiDXG4KDZzwRRR-xiYGp-138" value="Download" style="text;html=1;strokeColor=none;fillColor=none;align=center;verticalAlign=middle;whiteSpace=wrap;rounded=0;fontSize=8;" vertex="1" parent="RiDXG4KDZzwRRR-xiYGp-132">
          <mxGeometry x="185" y="60" width="70" height="20" as="geometry" />
        </mxCell>
        <mxCell id="RiDXG4KDZzwRRR-xiYGp-139" value="View details" style="text;html=1;strokeColor=none;fillColor=none;align=center;verticalAlign=middle;whiteSpace=wrap;rounded=0;fontSize=8;" vertex="1" parent="RiDXG4KDZzwRRR-xiYGp-132">
          <mxGeometry x="20" y="60" width="70" height="20" as="geometry" />
        </mxCell>
        <mxCell id="RiDXG4KDZzwRRR-xiYGp-144" value="" style="html=1;verticalLabelPosition=bottom;align=center;labelBackgroundColor=#ffffff;verticalAlign=top;strokeWidth=2;strokeColor=#0080F0;shadow=0;dashed=0;shape=mxgraph.ios7.icons.add;fontSize=8;fillColor=#8C8C8C;" vertex="1" parent="RiDXG4KDZzwRRR-xiYGp-98">
          <mxGeometry x="255" y="20" width="30" height="30" as="geometry" />
        </mxCell>
        <mxCell id="RiDXG4KDZzwRRR-xiYGp-146" value="" style="group" vertex="1" connectable="0" parent="RiDXG4KDZzwRRR-xiYGp-98">
          <mxGeometry x="17.5" y="480" width="265" height="35" as="geometry" />
        </mxCell>
        <mxCell id="RiDXG4KDZzwRRR-xiYGp-140" value="" style="shape=rect;fillColor=#e0e0e0;strokeColor=none;fontSize=8;align=center;" vertex="1" parent="RiDXG4KDZzwRRR-xiYGp-146">
          <mxGeometry width="265" height="35" as="geometry" />
        </mxCell>
        <mxCell id="RiDXG4KDZzwRRR-xiYGp-141" value="" style="html=1;strokeWidth=1;shadow=0;dashed=0;shape=mxgraph.ios7ui.marginRect;rx=3;ry=3;rectMargin=5;strokeColor=none;" vertex="1" parent="RiDXG4KDZzwRRR-xiYGp-140">
          <mxGeometry width="254.99999999999997" height="28" as="geometry" />
        </mxCell>
        <mxCell id="RiDXG4KDZzwRRR-xiYGp-142" value="Search" style="shape=mxgraph.ios7.icons.looking_glass;strokeColor=#e0e0e0;fillColor=none;fontColor=#e0e0e0;labelPosition=right;verticalLabelPosition=middle;align=left;verticalAlign=middle;fontSize=6;fontStyle=0;spacingTop=2;" vertex="1" parent="RiDXG4KDZzwRRR-xiYGp-140">
          <mxGeometry x="0.5" y="0.5" width="6" height="6" relative="1" as="geometry">
            <mxPoint x="-17" y="-3" as="offset" />
          </mxGeometry>
        </mxCell>
        <mxCell id="RiDXG4KDZzwRRR-xiYGp-145" value="" style="aspect=fixed;pointerEvents=1;shadow=0;dashed=0;html=1;strokeColor=none;labelPosition=center;verticalLabelPosition=bottom;verticalAlign=top;align=center;fillColor=#00188D;shape=mxgraph.mscae.enterprise.filter;fontSize=8;" vertex="1" parent="RiDXG4KDZzwRRR-xiYGp-140">
          <mxGeometry x="230" y="5.5" width="25" height="22.5" as="geometry" />
        </mxCell>
        <mxCell id="RiDXG4KDZzwRRR-xiYGp-143" value="" style="html=1;verticalLabelPosition=bottom;align=center;labelBackgroundColor=#ffffff;verticalAlign=top;strokeWidth=2;strokeColor=#0080F0;shadow=0;dashed=0;shape=mxgraph.ios7.icons.looking_glass;fontSize=8;fillColor=#8C8C8C;" vertex="1" parent="RiDXG4KDZzwRRR-xiYGp-146">
          <mxGeometry x="5" y="2.5" width="30" height="30" as="geometry" />
        </mxCell>
        <mxCell id="RiDXG4KDZzwRRR-xiYGp-147" value="" style="shape=image;html=1;verticalAlign=top;verticalLabelPosition=bottom;labelBackgroundColor=#ffffff;imageAspect=0;aspect=fixed;image=https://cdn1.iconfinder.com/data/icons/gradak-interface/32/interface-67-128.png" vertex="1" parent="RiDXG4KDZzwRRR-xiYGp-98">
          <mxGeometry y="20" width="48" height="48" as="geometry" />
        </mxCell>
        <mxCell id="RiDXG4KDZzwRRR-xiYGp-148" value="" style="group" vertex="1" connectable="0" parent="WIyWlLk6GJQsqaUBKTNV-1">
          <mxGeometry x="-1010" y="920" width="300" height="530" as="geometry" />
        </mxCell>
        <mxCell id="RiDXG4KDZzwRRR-xiYGp-149" value="" style="shape=mxgraph.mockup.containers.marginRect;rectMarginTop=10;strokeColor=#666666;strokeWidth=1;dashed=0;rounded=1;arcSize=5;recursiveResize=0;fillColor=#8C8C8C;align=left;container=0;" vertex="1" parent="RiDXG4KDZzwRRR-xiYGp-148">
          <mxGeometry width="300" height="530" as="geometry" />
        </mxCell>
        <mxCell id="RiDXG4KDZzwRRR-xiYGp-150" value="Customers" style="shape=rect;strokeColor=none;fillColor=#008cff;strokeWidth=1;dashed=0;rounded=1;arcSize=20;fontColor=#ffffff;fontSize=17;spacing=2;spacingTop=-2;align=left;autosize=1;spacingLeft=4;resizeWidth=0;resizeHeight=0;perimeter=none;" vertex="1" parent="RiDXG4KDZzwRRR-xiYGp-148">
          <mxGeometry width="130" height="30" as="geometry" />
        </mxCell>
        <mxCell id="RiDXG4KDZzwRRR-xiYGp-175" value="" style="html=1;verticalLabelPosition=bottom;align=center;labelBackgroundColor=#ffffff;verticalAlign=top;strokeWidth=2;strokeColor=#0080F0;shadow=0;dashed=0;shape=mxgraph.ios7.icons.add;fontSize=8;fillColor=#8C8C8C;" vertex="1" parent="RiDXG4KDZzwRRR-xiYGp-148">
          <mxGeometry x="255" y="20" width="30" height="30" as="geometry" />
        </mxCell>
        <mxCell id="RiDXG4KDZzwRRR-xiYGp-182" value="" style="shape=image;html=1;verticalAlign=top;verticalLabelPosition=bottom;labelBackgroundColor=#ffffff;imageAspect=0;aspect=fixed;image=https://cdn1.iconfinder.com/data/icons/gradak-interface/32/interface-67-128.png" vertex="1" parent="RiDXG4KDZzwRRR-xiYGp-148">
          <mxGeometry y="20" width="48" height="48" as="geometry" />
        </mxCell>
        <mxCell id="RiDXG4KDZzwRRR-xiYGp-183" value="Name&lt;br style=&quot;font-size: 10px;&quot;&gt;phone number&lt;br style=&quot;font-size: 10px;&quot;&gt;&lt;div style=&quot;font-size: 10px;&quot;&gt;&lt;span style=&quot;font-size: 10px;&quot;&gt;address&lt;/span&gt;&lt;/div&gt;" style="shape=ext;double=1;rounded=0;whiteSpace=wrap;html=1;fontSize=10;fillColor=#8C8C8C;align=left;spacing=11;" vertex="1" parent="RiDXG4KDZzwRRR-xiYGp-148">
          <mxGeometry x="20" y="80" width="260" height="50" as="geometry" />
        </mxCell>
        <mxCell id="RiDXG4KDZzwRRR-xiYGp-184" value="Name&lt;br style=&quot;font-size: 10px;&quot;&gt;phone number&lt;br style=&quot;font-size: 10px;&quot;&gt;&lt;div style=&quot;font-size: 10px;&quot;&gt;&lt;span style=&quot;font-size: 10px;&quot;&gt;address&lt;/span&gt;&lt;/div&gt;" style="shape=ext;double=1;rounded=0;whiteSpace=wrap;html=1;fontSize=10;fillColor=#8C8C8C;align=left;spacing=11;" vertex="1" parent="RiDXG4KDZzwRRR-xiYGp-148">
          <mxGeometry x="20" y="130" width="260" height="50" as="geometry" />
        </mxCell>
        <mxCell id="RiDXG4KDZzwRRR-xiYGp-185" value="Name&lt;br style=&quot;font-size: 10px;&quot;&gt;phone number&lt;br style=&quot;font-size: 10px;&quot;&gt;&lt;div style=&quot;font-size: 10px;&quot;&gt;&lt;span style=&quot;font-size: 10px;&quot;&gt;address&lt;/span&gt;&lt;/div&gt;" style="shape=ext;double=1;rounded=0;whiteSpace=wrap;html=1;fontSize=10;fillColor=#8C8C8C;align=left;spacing=11;" vertex="1" parent="RiDXG4KDZzwRRR-xiYGp-148">
          <mxGeometry x="20" y="180" width="260" height="50" as="geometry" />
        </mxCell>
        <mxCell id="RiDXG4KDZzwRRR-xiYGp-186" value="" style="aspect=fixed;pointerEvents=1;shadow=0;dashed=0;html=1;strokeColor=none;labelPosition=center;verticalLabelPosition=bottom;verticalAlign=top;align=center;fillColor=#00188D;shape=mxgraph.mscae.enterprise.filter;fontSize=8;" vertex="1" parent="RiDXG4KDZzwRRR-xiYGp-148">
          <mxGeometry x="230" y="50" width="25" height="22.5" as="geometry" />
        </mxCell>
        <mxCell id="RiDXG4KDZzwRRR-xiYGp-222" value="" style="group" vertex="1" connectable="0" parent="WIyWlLk6GJQsqaUBKTNV-1">
          <mxGeometry x="-670" y="930" width="300" height="530" as="geometry" />
        </mxCell>
        <mxCell id="RiDXG4KDZzwRRR-xiYGp-223" value="" style="shape=mxgraph.mockup.containers.marginRect;rectMarginTop=10;strokeColor=#666666;strokeWidth=1;dashed=0;rounded=1;arcSize=5;recursiveResize=0;fillColor=#8C8C8C;align=left;container=0;" vertex="1" parent="RiDXG4KDZzwRRR-xiYGp-222">
          <mxGeometry width="300" height="530" as="geometry" />
        </mxCell>
        <mxCell id="RiDXG4KDZzwRRR-xiYGp-224" value="Shop details" style="shape=rect;strokeColor=none;fillColor=#008cff;strokeWidth=1;dashed=0;rounded=1;arcSize=20;fontColor=#ffffff;fontSize=17;spacing=2;spacingTop=-2;align=left;autosize=1;spacingLeft=4;resizeWidth=0;resizeHeight=0;perimeter=none;" vertex="1" parent="RiDXG4KDZzwRRR-xiYGp-222">
          <mxGeometry width="120" height="30" as="geometry" />
        </mxCell>
        <mxCell id="RiDXG4KDZzwRRR-xiYGp-226" value="" style="shape=image;html=1;verticalAlign=top;verticalLabelPosition=bottom;labelBackgroundColor=#ffffff;imageAspect=0;aspect=fixed;image=https://cdn1.iconfinder.com/data/icons/gradak-interface/32/interface-67-128.png" vertex="1" parent="RiDXG4KDZzwRRR-xiYGp-222">
          <mxGeometry y="20" width="48" height="48" as="geometry" />
        </mxCell>
        <mxCell id="RiDXG4KDZzwRRR-xiYGp-227" value="basic details" style="shape=ext;double=1;rounded=0;whiteSpace=wrap;html=1;fontSize=17;fillColor=#8C8C8C;align=left;spacing=11;" vertex="1" parent="RiDXG4KDZzwRRR-xiYGp-222">
          <mxGeometry x="20" y="80" width="260" height="50" as="geometry" />
        </mxCell>
        <mxCell id="RiDXG4KDZzwRRR-xiYGp-228" value="compliance details" style="shape=ext;double=1;rounded=0;whiteSpace=wrap;html=1;fontSize=15;fillColor=#8C8C8C;align=left;spacing=11;" vertex="1" parent="RiDXG4KDZzwRRR-xiYGp-222">
          <mxGeometry x="20" y="130" width="260" height="50" as="geometry" />
        </mxCell>
        <mxCell id="RiDXG4KDZzwRRR-xiYGp-229" value="contact details" style="shape=ext;double=1;rounded=0;whiteSpace=wrap;html=1;fontSize=16;fillColor=#8C8C8C;align=left;spacing=11;" vertex="1" parent="RiDXG4KDZzwRRR-xiYGp-222">
          <mxGeometry x="20" y="180" width="260" height="50" as="geometry" />
        </mxCell>
        <mxCell id="RiDXG4KDZzwRRR-xiYGp-231" value="" style="dashed=0;aspect=fixed;verticalLabelPosition=bottom;verticalAlign=top;align=center;shape=mxgraph.gmdl.edit;shadow=0;fontSize=10;" vertex="1" parent="WIyWlLk6GJQsqaUBKTNV-1">
          <mxGeometry x="190" y="980" width="20" height="20" as="geometry" />
        </mxCell>
        <mxCell id="RiDXG4KDZzwRRR-xiYGp-232" value="Log out" style="rounded=1;whiteSpace=wrap;html=1;fontSize=15;align=center;" vertex="1" parent="WIyWlLk6GJQsqaUBKTNV-1">
          <mxGeometry x="-220" y="230" width="120" height="60" as="geometry" />
        </mxCell>
        <mxCell id="RiDXG4KDZzwRRR-xiYGp-233" value="" style="group" vertex="1" connectable="0" parent="WIyWlLk6GJQsqaUBKTNV-1">
          <mxGeometry x="-330" y="920" width="300" height="530" as="geometry" />
        </mxCell>
        <mxCell id="RiDXG4KDZzwRRR-xiYGp-234" value="" style="shape=mxgraph.mockup.containers.marginRect;rectMarginTop=10;strokeColor=#666666;strokeWidth=1;dashed=0;rounded=1;arcSize=5;recursiveResize=0;fillColor=#8C8C8C;align=left;container=0;" vertex="1" parent="RiDXG4KDZzwRRR-xiYGp-233">
          <mxGeometry width="300" height="530" as="geometry" />
        </mxCell>
        <mxCell id="RiDXG4KDZzwRRR-xiYGp-235" value="Settings" style="shape=rect;strokeColor=none;fillColor=#008cff;strokeWidth=1;dashed=0;rounded=1;arcSize=20;fontColor=#ffffff;fontSize=17;spacing=2;spacingTop=-2;align=left;autosize=1;spacingLeft=4;resizeWidth=0;resizeHeight=0;perimeter=none;" vertex="1" parent="RiDXG4KDZzwRRR-xiYGp-233">
          <mxGeometry width="80" height="30" as="geometry" />
        </mxCell>
        <mxCell id="RiDXG4KDZzwRRR-xiYGp-236" value="" style="shape=image;html=1;verticalAlign=top;verticalLabelPosition=bottom;labelBackgroundColor=#ffffff;imageAspect=0;aspect=fixed;image=https://cdn1.iconfinder.com/data/icons/gradak-interface/32/interface-67-128.png" vertex="1" parent="RiDXG4KDZzwRRR-xiYGp-233">
          <mxGeometry y="20" width="48" height="48" as="geometry" />
        </mxCell>
        <mxCell id="RiDXG4KDZzwRRR-xiYGp-242" value="" style="endArrow=classic;startArrow=classic;html=1;fontSize=15;fontColor=#4112FF;entryX=-0.067;entryY=0.644;entryDx=0;entryDy=0;entryPerimeter=0;" edge="1" parent="WIyWlLk6GJQsqaUBKTNV-1" source="RiDXG4KDZzwRRR-xiYGp-235" target="RiDXG4KDZzwRRR-xiYGp-41">
          <mxGeometry width="50" height="50" relative="1" as="geometry">
            <mxPoint x="-480" y="630" as="sourcePoint" />
            <mxPoint x="70" y="410" as="targetPoint" />
          </mxGeometry>
        </mxCell>
        <mxCell id="RiDXG4KDZzwRRR-xiYGp-243" value="" style="endArrow=classic;startArrow=classic;html=1;fontSize=15;fontColor=#4112FF;entryX=-0.028;entryY=0.614;entryDx=0;entryDy=0;entryPerimeter=0;" edge="1" parent="WIyWlLk6GJQsqaUBKTNV-1" source="RiDXG4KDZzwRRR-xiYGp-224" target="RiDXG4KDZzwRRR-xiYGp-41">
          <mxGeometry width="50" height="50" relative="1" as="geometry">
            <mxPoint x="-620" y="700" as="sourcePoint" />
            <mxPoint x="80" y="420" as="targetPoint" />
          </mxGeometry>
        </mxCell>
        <mxCell id="RiDXG4KDZzwRRR-xiYGp-244" value="" style="endArrow=classic;startArrow=classic;html=1;fontSize=15;fontColor=#4112FF;" edge="1" parent="WIyWlLk6GJQsqaUBKTNV-1" source="RiDXG4KDZzwRRR-xiYGp-150" target="RiDXG4KDZzwRRR-xiYGp-41">
          <mxGeometry width="50" height="50" relative="1" as="geometry">
            <mxPoint x="-620" y="725" as="sourcePoint" />
            <mxPoint x="90" y="430" as="targetPoint" />
          </mxGeometry>
        </mxCell>
        <mxCell id="RiDXG4KDZzwRRR-xiYGp-245" value="" style="endArrow=classic;startArrow=classic;html=1;fontSize=15;fontColor=#4112FF;entryX=-0.018;entryY=0.624;entryDx=0;entryDy=0;entryPerimeter=0;" edge="1" parent="WIyWlLk6GJQsqaUBKTNV-1" source="RiDXG4KDZzwRRR-xiYGp-50" target="RiDXG4KDZzwRRR-xiYGp-41">
          <mxGeometry width="50" height="50" relative="1" as="geometry">
            <mxPoint x="-1380" y="400" as="sourcePoint" />
            <mxPoint x="100" y="440" as="targetPoint" />
          </mxGeometry>
        </mxCell>
        <mxCell id="RiDXG4KDZzwRRR-xiYGp-246" value="" style="endArrow=classic;html=1;fontSize=15;fontColor=#4112FF;edgeStyle=orthogonalEdgeStyle;exitX=0.104;exitY=0.625;exitDx=0;exitDy=0;exitPerimeter=0;entryX=0.5;entryY=1;entryDx=0;entryDy=0;" edge="1" parent="WIyWlLk6GJQsqaUBKTNV-1" source="RiDXG4KDZzwRRR-xiYGp-41" target="RiDXG4KDZzwRRR-xiYGp-232">
          <mxGeometry width="50" height="50" relative="1" as="geometry">
            <mxPoint x="-80" y="440" as="sourcePoint" />
            <mxPoint x="-150" y="360" as="targetPoint" />
          </mxGeometry>
        </mxCell>
      </root>
    </mxGraphModel>
  </diagram>
</mxfile>
